{
  "accessors": [
    {
      "bufferView": 2,
      "componentType": 5126,
      "count": 27938,
      "max": [
        0.4253219962120056,
        -0.005009000189602375,
        0.10554800182580948
      ],
      "min": [
        -0.8183349967002869,
        -0.04035099968314171,
        -0.09470000118017197
      ],
      "type": "VEC3"
    },
    {
      "bufferView": 2,
      "byteOffset": 335256,
      "componentType": 5126,
      "count": 27938,
      "max": [
        0.9999104738235474,
        0.9999995231628418,
        0.9999980330467224
      ],
      "min": [
        -0.99990314245224,
        -0.9999997615814209,
        -0.9999971389770508
      ],
      "type": "VEC3"
    },
    {
      "bufferView": 3,
      "componentType": 5126,
      "count": 27938,
      "max": [
        1.0,
        0.9999998211860657,
        0.9999995827674866,
        1.0
      ],
      "min": [
        -1.0,
        -0.9999999403953552,
        -0.999995768070221,
        -1.0
      ],
      "type": "VEC4"
    },
    {
      "bufferView": 1,
      "componentType": 5126,
      "count": 27938,
      "max": [
        0.896947979927063,
        0.9950000047683716
      ],
      "min": [
        0.004999999888241291,
        0.004999999888241291
      ],
      "type": "VEC2"
    },
    {
      "bufferView": 0,
      "componentType": 5125,
      "count": 149994,
      "type": "SCALAR"
    }
  ],
  "asset": {
    "extras": {
      "author": "grafi (https://sketchfab.com/zdenkoroman)",
      "license": "CC-BY-4.0 (http://creativecommons.org/licenses/by/4.0/)",
      "source": "https://sketchfab.com/3d-models/paddle-3d-scan-0e16c237a7da44c7a4cd5d63b534540c",
      "title": "Paddle 3D Scan"
    },
    "generator": "Sketchfab-12.68.0",
    "version": "2.0"
  },
  "bufferViews": [
    {
      "buffer": 0,
      "byteLength": 599976,
      "name": "floatBufferViews",
      "target": 34963
    },
    {
      "buffer": 0,
      "byteLength": 223504,
      "byteOffset": 599976,
      "byteStride": 8,
      "name": "floatBufferViews",
      "target": 34962
    },
    {
      "buffer": 0,
      "byteLength": 670512,
      "byteOffset": 823480,
      "byteStride": 12,
      "name": "floatBufferViews",
      "target": 34962
    },
    {
      "buffer": 0,
      "byteLength": 447008,
      "byteOffset": 1493992,
      "byteStride": 16,
      "name": "floatBufferViews",
      "target": 34962
    }
  ],
  "buffers": [
    {
      "byteLength": 1941000,
      "uri": "scene.bin"
    }
  ],
  "images": [
    {
      "uri": "textures/veslo_low_baseColor.jpeg"
    },
    {
      "uri": "textures/veslo_low_metallicRoughness.png"
    },
    {
      "uri": "textures/veslo_low_normal.png"
    }
  ],
  "materials": [
    {
      "doubleSided": true,
      "name": "veslo_low",
      "normalTexture": {
        "index": 2
      },
      "occlusionTexture": {
        "index": 1
      },
      "pbrMetallicRoughness": {
        "baseColorTexture": {
          "index": 0
        },
        "metallicFactor": 0.0,
        "metallicRoughnessTexture": {
          "index": 1
        },
        "roughnessFactor": 0.3057187068687716
      }
    }
  ],
  "meshes": [
    {
      "name": "Object_0",
      "primitives": [
        {
          "attributes": {
            "NORMAL": 1,
            "POSITION": 0,
            "TANGENT": 2,
            "TEXCOORD_0": 3
          },
          "indices": 4,
          "material": 0,
          "mode": 4
        }
      ]
    }
  ],
  "nodes": [
    {
      "children": [
        1
      ],
      "matrix": [
        1.0,
        0.0,
        0.0,
        0.0,
        0.0,
        -1.0,
        0.0,
        0.0,
        0.0,
        0.0,
        -1.0,
        0.0,
        0.0,
        -0.017255928367376334,
        0.028103914111852642,
        1.0
      ],
      "name": "Sketchfab_model"
    },
    {
      "children": [
        2
      ],
      "name": "veslo_low.obj.cleaner.materialmerger.gles"
    },
    {
      "mesh": 0,
      "name": "Object_2"
    }
  ],
  "samplers": [
    {
      "magFilter": 9729,
      "minFilter": 9987,
      "wrapS": 10497,
      "wrapT": 10497
    }
  ],
  "scene": 0,
  "scenes": [
    {
      "name": "Sketchfab_Scene",
      "nodes": [
        0
      ]
    }
  ],
  "textures": [
    {
      "sampler": 0,
      "source": 0
    },
    {
      "sampler": 0,
      "source": 1
    },
    {
      "sampler": 0,
      "source": 2
    }
  ]
}
