{
  "accessors": [
    {
      "bufferView": 2,
      "componentType": 5126,
      "count": 4225,
      "max": [
        151.4918670654297,
        150.4597625732422,
        1.1447081565856934
      ],
      "min": [
        -151.3264923095703,
        -150.40219116210938,
        -1.059309482574463
      ],
      "type": "VEC3"
    },
    {
      "bufferView": 2,
      "byteOffset": 50700,
      "componentType": 5126,
      "count": 4225,
      "max": [
        0.07194770127534866,
        0.1177760660648346,
        0.9999995231628418
      ],
      "min": [
        -0.0738663598895073,
        -0.11767473071813583,
        0.9925727844238281
      ],
      "type": "VEC3"
    },
    {
      "bufferView": 1,
      "componentType": 5126,
      "count": 4225,
      "max": [
        2.602905511856079,
        2.5893185138702393
      ],
      "min": [
        -1.6029057502746582,
        -1.5893185138702393
      ],
      "type": "VEC2"
    },
    {
      "bufferView": 0,
      "componentType": 5125,
      "count": 24576,
      "type": "SCALAR"
    },
    {
      "bufferView": 2,
      "byteOffset": 101400,
      "componentType": 5126,
      "count": 65532,
      "max": [
        85.50093078613281,
        12.560081481933594,
        14.577117919921875
      ],
      "min": [
        -85.26527404785156,
        -12.080083847045898,
        3.1776561737060547
      ],
      "type": "VEC3"
    },
    {
      "bufferView": 2,
      "byteOffset": 887784,
      "componentType": 5126,
      "count": 65532,
      "max": [
        0.9999980926513672,
        0.9999966025352478,
        0.9999988675117493
      ],
      "min": [
        -0.9999924898147583,
        -0.9999687671661377,
        -0.9999581575393677
      ],
      "type": "VEC3"
    },
    {
      "bufferView": 1,
      "byteOffset": 33800,
      "componentType": 5126,
      "count": 65532,
      "max": [
        0.9985600113868713,
        0.9988999962806702
      ],
      "min": [
        0.0010999999940395355,
        0.00010599999950500205
      ],
      "type": "VEC2"
    },
    {
      "bufferView": 0,
      "byteOffset": 98304,
      "componentType": 5125,
      "count": 309585,
      "type": "SCALAR"
    },
    {
      "bufferView": 2,
      "byteOffset": 1674168,
      "componentType": 5126,
      "count": 65534,
      "max": [
        85.29718017578125,
        14.740055084228516,
        12.050262451171875
      ],
      "min": [
        -72.72622680664063,
        -9.517192840576172,
        -0.1812276840209961
      ],
      "type": "VEC3"
    },
    {
      "bufferView": 2,
      "byteOffset": 2460576,
      "componentType": 5126,
      "count": 65534,
      "max": [
        0.9998093247413635,
        0.9999925494194031,
        0.9999991059303284
      ],
      "min": [
        -0.9998029470443726,
        -0.9999985098838806,
        -1.0
      ],
      "type": "VEC3"
    },
    {
      "bufferView": 1,
      "byteOffset": 558056,
      "componentType": 5126,
      "count": 65534,
      "max": [
        0.9506109952926636,
        0.9233099818229675
      ],
      "min": [
        0.005499999970197678,
        0.0005469999741762877
      ],
      "type": "VEC2"
    },
    {
      "bufferView": 0,
      "byteOffset": 1336644,
      "componentType": 5125,
      "count": 347328,
      "type": "SCALAR"
    },
    {
      "bufferView": 2,
      "byteOffset": 3246984,
      "componentType": 5126,
      "count": 65532,
      "max": [
        84.68704223632813,
        14.66800308227539,
        11.393672943115234
      ],
      "min": [
        -76.17228698730469,
        -14.740055084228516,
        -0.17731666564941406
      ],
      "type": "VEC3"
    },
    {
      "bufferView": 2,
      "byteOffset": 4033368,
      "componentType": 5126,
      "count": 65532,
      "max": [
        0.9999872446060181,
        0.9998020529747009,
        0.4826497733592987
      ],
      "min": [
        -0.9999594688415527,
        -0.9999985098838806,
        -1.0
      ],
      "type": "VEC3"
    },
    {
      "bufferView": 1,
      "byteOffset": 1082328,
      "componentType": 5126,
      "count": 65532,
      "max": [
        0.8496720194816589,
        0.9384880065917969
      ],
      "min": [
        0.058107998222112656,
        0.16737100481987
      ],
      "type": "VEC2"
    },
    {
      "bufferView": 0,
      "byteOffset": 2725956,
      "componentType": 5125,
      "count": 330807,
      "type": "SCALAR"
    },
    {
      "bufferView": 2,
      "byteOffset": 4819752,
      "componentType": 5126,
      "count": 65532,
      "max": [
        84.24468994140625,
        14.206174850463867,
        14.122661590576172
      ],
      "min": [
        -85.50093078613281,
        -14.735116958618164,
        -0.16353368759155273
      ],
      "type": "VEC3"
    },
    {
      "bufferView": 2,
      "byteOffset": 5606136,
      "componentType": 5126,
      "count": 65532,
      "max": [
        0.9999668002128601,
        0.9998383522033691,
        1.0
      ],
      "min": [
        -0.9979788661003113,
        -0.999990701675415,
        -0.9999736547470093
      ],
      "type": "VEC3"
    },
    {
      "bufferView": 1,
      "byteOffset": 1606584,
      "componentType": 5126,
      "count": 65532,
      "max": [
        0.9628779888153076,
        0.9988999962806702
      ],
      "min": [
        0.0010999999940395355,
        0.032829999923706055
      ],
      "type": "VEC2"
    },
    {
      "bufferView": 0,
      "byteOffset": 4049184,
      "componentType": 5125,
      "count": 334455,
      "type": "SCALAR"
    },
    {
      "bufferView": 2,
      "byteOffset": 6392520,
      "componentType": 5126,
      "count": 65532,
      "max": [
        83.70297241210938,
        14.738731384277344,
        14.167367935180664
      ],
      "min": [
        -85.4207763671875,
        -14.058980941772461,
        4.027498722076416
      ],
      "type": "VEC3"
    },
    {
      "bufferView": 2,
      "byteOffset": 7178904,
      "componentType": 5126,
      "count": 65532,
      "max": [
        0.9999890923500061,
        0.9999997019767761,
        0.9999999403953552
      ],
      "min": [
        -0.9997960329055786,
        -0.999998152256012,
        -0.9998146891593933
      ],
      "type": "VEC3"
    },
    {
      "bufferView": 1,
      "byteOffset": 2130840,
      "componentType": 5126,
      "count": 65532,
      "max": [
        0.9932069778442383,
        0.9988999962806702
      ],
      "min": [
        0.02199999988079071,
        0.006283000111579895
      ],
      "type": "VEC2"
    },
    {
      "bufferView": 0,
      "byteOffset": 5387004,
      "componentType": 5125,
      "count": 371784,
      "type": "SCALAR"
    },
    {
      "bufferView": 2,
      "byteOffset": 7965288,
      "componentType": 5126,
      "count": 41542,
      "max": [
        84.95759582519531,
        14.626880645751953,
        13.618404388427734
      ],
      "min": [
        -81.2550048828125,
        -14.121606826782227,
        4.062490463256836
      ],
      "type": "VEC3"
    },
    {
      "bufferView": 2,
      "byteOffset": 8463792,
      "componentType": 5126,
      "count": 41542,
      "max": [
        0.9983316659927368,
        0.9999786615371704,
        0.9999989867210388
      ],
      "min": [
        -0.9999731779098511,
        -0.9997971653938293,
        -0.9991868138313293
      ],
      "type": "VEC3"
    },
    {
      "bufferView": 1,
      "byteOffset": 2655096,
      "componentType": 5126,
      "count": 41542,
      "max": [
        0.9863499999046326,
        0.9362000226974487
      ],
      "min": [
        0.050599999725818634,
        0.001155999954789877
      ],
      "type": "VEC2"
    },
    {
      "bufferView": 0,
      "byteOffset": 6874140,
      "componentType": 5125,
      "count": 227589,
      "type": "SCALAR"
    },
    {
      "bufferView": 2,
      "byteOffset": 8962296,
      "componentType": 5126,
      "count": 48950,
      "max": [
        34.091552734375,
        12.592813491821289,
        6.375949859619141
      ],
      "min": [
        -53.40248107910156,
        -13.477807998657227,
        0.5517590045928955
      ],
      "type": "VEC3"
    },
    {
      "bufferView": 2,
      "byteOffset": 9549696,
      "componentType": 5126,
      "count": 48950,
      "max": [
        0.9964632391929626,
        0.9998157620429993,
        0.9999989867210388
      ],
      "min": [
        -0.9993458986282349,
        -0.9994398355484009,
        -0.9999968409538269
      ],
      "type": "VEC3"
    },
    {
      "bufferView": 1,
      "byteOffset": 2987432,
      "componentType": 5126,
      "count": 48950,
      "max": [
        0.7274720072746277,
        0.99686199426651
      ],
      "min": [
        0.003137999912723899,
        0.01549999974668026
      ],
      "type": "VEC2"
    },
    {
      "bufferView": 0,
      "byteOffset": 7784496,
      "componentType": 5125,
      "count": 276462,
      "type": "SCALAR"
    },
    {
      "bufferView": 2,
      "byteOffset": 10137096,
      "componentType": 5126,
      "count": 4225,
      "max": [
        151.3807830810547,
        150.6456756591797,
        1.9059144258499146
      ],
      "min": [
        -151.2734832763672,
        -150.7095489501953,
        -1.890001654624939
      ],
      "type": "VEC3"
    },
    {
      "bufferView": 2,
      "byteOffset": 10187796,
      "componentType": 5126,
      "count": 4225,
      "max": [
        0.1480858474969864,
        0.254271537065506,
        0.9999959468841553
      ],
      "min": [
        -0.1360473930835724,
        -0.25540292263031006,
        0.9650019407272339
      ],
      "type": "VEC3"
    },
    {
      "bufferView": 1,
      "byteOffset": 3379032,
      "componentType": 5126,
      "count": 4225,
      "max": [
        2.2658510208129883,
        2.243250608444214
      ],
      "min": [
        -1.2665290832519531,
        -1.2446562051773071
      ],
      "type": "VEC2"
    },
    {
      "bufferView": 0,
      "byteOffset": 8890344,
      "componentType": 5125,
      "count": 24576,
      "type": "SCALAR"
    }
  ],
  "asset": {
    "extras": {
      "author": "Kevin Merino (https://sketchfab.com/kmerino)",
      "license": "CC-BY-4.0 (http://creativecommons.org/licenses/by/4.0/)",
      "source": "https://sketchfab.com/3d-models/kayak-summer-fun-6d77716d39024d49b4c8840a8d2ca53b",
      "title": "Kayak - Summer Fun!"
    },
    "generator": "Sketchfab-12.66.0",
    "version": "2.0"
  },
  "bufferViews": [
    {
      "buffer": 0,
      "byteLength": 8988648,
      "name": "floatBufferViews",
      "target": 34963
    },
    {
      "buffer": 0,
      "byteLength": 3412832,
      "byteOffset": 8988648,
      "byteStride": 8,
      "name": "floatBufferViews",
      "target": 34962
    },
    {
      "buffer": 0,
      "byteLength": 10238496,
      "byteOffset": 12401480,
      "byteStride": 12,
      "name": "floatBufferViews",
      "target": 34962
    }
  ],
  "buffers": [
    {
      "byteLength": 22639976,
      "uri": "scene.bin"
    }
  ],
  "images": [
    {
      "uri": "textures/Water_baseColor.jpeg"
    },
    {
      "uri": "textures/material_0_baseColor.jpeg"
    },
    {
      "uri": "textures/material_0_0_baseColor.jpeg"
    },
    {
      "uri": "textures/Sand_baseColor.jpeg"
    }
  ],
  "materials": [
    {
      "alphaMode": "BLEND",
      "doubleSided": true,
      "name": "Water",
      "pbrMetallicRoughness": {
        "baseColorFactor": [
          0.3309832317,
          0.3309832317,
          0.3309832317,
          0.7029344512
        ],
        "baseColorTexture": {
          "index": 0
        },
        "metallicFactor": 0.6846417683,
        "roughnessFactor": 0.016577743899999997
      }
    },
    {
      "doubleSided": true,
      "name": "material_0",
      "pbrMetallicRoughness": {
        "baseColorTexture": {
          "index": 1
        },
        "metallicFactor": 0.0,
        "roughnessFactor": 0.43431457510000004
      }
    },
    {
      "doubleSided": true,
      "name": "material_0_0",
      "pbrMetallicRoughness": {
        "baseColorTexture": {
          "index": 2
        },
        "metallicFactor": 0.0,
        "roughnessFactor": 0.43431457510000004
      }
    },
    {
      "doubleSided": true,
      "name": "Sand",
      "pbrMetallicRoughness": {
        "baseColorTexture": {
          "index": 3
        },
        "metallicFactor": 0.0,
        "roughnessFactor": 0.8986954448
      }
    }
  ],
  "meshes": [
    {
      "name": "Water_Water_0",
      "primitives": [
        {
          "attributes": {
            "NORMAL": 1,
            "POSITION": 0,
            "TEXCOORD_0": 2
          },
          "indices": 3,
          "material": 0,
          "mode": 4
        }
      ]
    },
    {
      "name": "Kayak_Scan_material_0_0",
      "primitives": [
        {
          "attributes": {
            "NORMAL": 5,
            "POSITION": 4,
            "TEXCOORD_0": 6
          },
          "indices": 7,
          "material": 1,
          "mode": 4
        }
      ]
    },
    {
      "name": "Kayak_Scan_material_0_0",
      "primitives": [
        {
          "attributes": {
            "NORMAL": 9,
            "POSITION": 8,
            "TEXCOORD_0": 10
          },
          "indices": 11,
          "material": 1,
          "mode": 4
        }
      ]
    },
    {
      "name": "Kayak_Scan_material_0_0",
      "primitives": [
        {
          "attributes": {
            "NORMAL": 13,
            "POSITION": 12,
            "TEXCOORD_0": 14
          },
          "indices": 15,
          "material": 1,
          "mode": 4
        }
      ]
    },
    {
      "name": "Kayak_Scan_material_0_0",
      "primitives": [
        {
          "attributes": {
            "NORMAL": 17,
            "POSITION": 16,
            "TEXCOORD_0": 18
          },
          "indices": 19,
          "material": 1,
          "mode": 4
        }
      ]
    },
    {
      "name": "Kayak_Scan_material_0_0",
      "primitives": [
        {
          "attributes": {
            "NORMAL": 21,
            "POSITION": 20,
            "TEXCOORD_0": 22
          },
          "indices": 23,
          "material": 1,
          "mode": 4
        }
      ]
    },
    {
      "name": "Kayak_Scan_material_0_0",
      "primitives": [
        {
          "attributes": {
            "NORMAL": 25,
            "POSITION": 24,
            "TEXCOORD_0": 26
          },
          "indices": 27,
          "material": 1,
          "mode": 4
        }
      ]
    },
    {
      "name": "default_material_0_0",
      "primitives": [
        {
          "attributes": {
            "NORMAL": 29,
            "POSITION": 28,
            "TEXCOORD_0": 30
          },
          "indices": 31,
          "material": 2,
          "mode": 4
        }
      ]
    },
    {
      "name": "Sand_Sand_0",
      "primitives": [
        {
          "attributes": {
            "NORMAL": 33,
            "POSITION": 32,
            "TEXCOORD_0": 34
          },
          "indices": 35,
          "material": 3,
          "mode": 4
        }
      ]
    }
  ],
  "nodes": [
    {
      "children": [
        1
      ],
      "matrix": [
        1.0,
        0.0,
        0.0,
        0.0,
        0.0,
        2.220446049250313e-16,
        -1.0,
        0.0,
        0.0,
        1.0,
        2.220446049250313e-16,
        0.0,
        0.0,
        0.0,
        0.0,
        1.0
      ],
      "name": "Sketchfab_model"
    },
    {
      "children": [
        2
      ],
      "matrix": [
        1.0,
        0.0,
        0.0,
        0.0,
        0.0,
        0.0,
        1.0,
        0.0,
        0.0,
        -1.0,
        0.0,
        0.0,
        0.0,
        0.0,
        0.0,
        1.0
      ],
      "name": "Kayak_Test.fbx"
    },
    {
      "children": [
        3,
        14
      ],
      "name": "RootNode"
    },
    {
      "children": [
        4,
        5
      ],
      "matrix": [
        1.0,
        0.0,
        0.0,
        0.0,
        0.0,
        2.220446049250313e-16,
        -1.0,
        0.0,
        0.0,
        1.0,
        2.220446049250313e-16,
        0.0,
        0.0,
        0.0,
        0.0,
        1.0
      ],
      "name": "Water"
    },
    {
      "mesh": 0,
      "name": "Water_Water_0"
    },
    {
      "children": [
        6,
        7,
        8,
        9,
        10,
        11,
        12
      ],
      "matrix": [
        1.0,
        0.0,
        0.0,
        0.0,
        0.0,
        1.0,
        0.0,
        0.0,
        0.0,
        0.0,
        1.0,
        0.0,
        0.0,
        7.041921890049707e-08,
        -2.171062469482422,
        1.0
      ],
      "name": "Kayak_Scan"
    },
    {
      "mesh": 1,
      "name": "Kayak_Scan_material_0_0"
    },
    {
      "mesh": 2,
      "name": "Kayak_Scan_material_0_0"
    },
    {
      "mesh": 3,
      "name": "Kayak_Scan_material_0_0"
    },
    {
      "mesh": 4,
      "name": "Kayak_Scan_material_0_0"
    },
    {
      "mesh": 5,
      "name": "Kayak_Scan_material_0_0"
    },
    {
      "mesh": 6,
      "name": "Kayak_Scan_material_0_0"
    },
    {
      "children": [
        13
      ],
      "matrix": [
        0.9769676932476283,
        -0.07822417474818098,
        -0.1985317768439328,
        0.0,
        0.19992225370326205,
        0.6608000139173986,
        0.7234461381966789,
        0.0,
        0.07459883710563402,
        -0.746474558561314,
        0.6612191368398064,
        0.0,
        -0.7125053405761719,
        7.101246356964111,
        8.60031795501709,
        1.0
      ],
      "name": "default"
    },
    {
      "mesh": 7,
      "name": "default_material_0_0"
    },
    {
      "children": [
        15
      ],
      "matrix": [
        1.0,
        0.0,
        0.0,
        0.0,
        0.0,
        2.220446049250313e-16,
        -1.0,
        0.0,
        0.0,
        1.0,
        2.220446049250313e-16,
        0.0,
        0.0,
        -10.550271987915039,
        -4.6116704766063776e-07,
        1.0
      ],
      "name": "Sand"
    },
    {
      "mesh": 8,
      "name": "Sand_Sand_0"
    }
  ],
  "samplers": [
    {
      "magFilter": 9729,
      "minFilter": 9987,
      "wrapS": 10497,
      "wrapT": 10497
    }
  ],
  "scene": 0,
  "scenes": [
    {
      "name": "Sketchfab_Scene",
      "nodes": [
        0
      ]
    }
  ],
  "textures": [
    {
      "sampler": 0,
      "source": 0
    },
    {
      "sampler": 0,
      "source": 1
    },
    {
      "sampler": 0,
      "source": 2
    },
    {
      "sampler": 0,
      "source": 3
    }
  ]
}
