{
  "accessors": [
    {
      "bufferView": 2,
      "componentType": 5126,
      "count": 65532,
      "max": [
        23.105295181274414,
        22.898042678833008,
        19.803539276123047
      ],
      "min": [
        -20.237661361694336,
        -20.490968704223633,
        0.7980790138244629
      ],
      "type": "VEC3"
    },
    {
      "bufferView": 2,
      "byteOffset": 786384,
      "componentType": 5126,
      "count": 65532,
      "max": [
        0.9761457443237305,
        0.9994335770606995,
        1.0
      ],
      "min": [
        -0.9997380971908569,
        -0.9994885325431824,
        -1.0
      ],
      "type": "VEC3"
    },
    {
      "bufferView": 3,
      "componentType": 5126,
      "count": 65532,
      "max": [
        0.7239901423454285,
        1.0,
        0.9999814629554749,
        -1.0
      ],
      "min": [
        -0.7546994686126709,
        -1.0,
        -0.9999527335166931,
        -1.0
      ],
      "type": "VEC4"
    },
    {
      "bufferView": 1,
      "componentType": 5126,
      "count": 65532,
      "max": [
        0.9736189842224121,
        0.9938960075378418
      ],
      "min": [
        0.0061039999127388,
        0.02104100026190281
      ],
      "type": "VEC2"
    },
    {
      "bufferView": 0,
      "componentType": 5125,
      "count": 366975,
      "type": "SCALAR"
    },
    {
      "bufferView": 2,
      "byteOffset": 1572768,
      "componentType": 5126,
      "count": 38555,
      "max": [
        23.479991912841797,
        22.898042678833008,
        19.857318878173828
      ],
      "min": [
        -20.028276443481445,
        -20.472335815429688,
        0.5701280236244202
      ],
      "type": "VEC3"
    },
    {
      "bufferView": 2,
      "byteOffset": 2035428,
      "componentType": 5126,
      "count": 38555,
      "max": [
        0.9997386336326599,
        0.9949517846107483,
        0.999920666217804
      ],
      "min": [
        -0.9954068660736084,
        -0.9979576468467712,
        -1.0
      ],
      "type": "VEC3"
    },
    {
      "bufferView": 3,
      "byteOffset": 1048512,
      "componentType": 5126,
      "count": 38555,
      "max": [
        0.7566694617271423,
        1.0,
        0.9999814629554749,
        -1.0
      ],
      "min": [
        -0.7698479890823364,
        -0.9999998807907104,
        -0.9999405741691589,
        -1.0
      ],
      "type": "VEC4"
    },
    {
      "bufferView": 1,
      "byteOffset": 524256,
      "componentType": 5126,
      "count": 38555,
      "max": [
        0.9809679985046387,
        0.949275016784668
      ],
      "min": [
        0.0061039999127388,
        0.020353000611066818
      ],
      "type": "VEC2"
    },
    {
      "bufferView": 0,
      "byteOffset": 1467900,
      "componentType": 5125,
      "count": 177933,
      "type": "SCALAR"
    }
  ],
  "asset": {
    "extras": {
      "author": "skdmuseum (https://sketchfab.com/skdmuseum)",
      "license": "CC-BY-SA-4.0 (http://creativecommons.org/licenses/by-sa/4.0/)",
      "source": "https://sketchfab.com/3d-models/kumme-nach-einem-chinesischen-vorbild-meissen-7117c2113ddf4cb8ab53a21cb1e64f69",
      "title": "Kumme nach einem chinesischen Vorbild, Meissen"
    },
    "generator": "Sketchfab-14.81.0",
    "version": "2.0"
  },
  "bufferViews": [
    {
      "buffer": 0,
      "byteLength": 2179632,
      "name": "floatBufferViews",
      "target": 34963
    },
    {
      "buffer": 0,
      "byteLength": 832696,
      "byteOffset": 2179632,
      "byteStride": 8,
      "name": "floatBufferViews",
      "target": 34962
    },
    {
      "buffer": 0,
      "byteLength": 2498088,
      "byteOffset": 3012328,
      "byteStride": 12,
      "name": "floatBufferViews",
      "target": 34962
    },
    {
      "buffer": 0,
      "byteLength": 1665392,
      "byteOffset": 5510416,
      "byteStride": 16,
      "name": "floatBufferViews",
      "target": 34962
    }
  ],
  "buffers": [
    {
      "byteLength": 7175808,
      "uri": "scene.bin"
    }
  ],
  "images": [
    {
      "uri": "textures/PE_2241_v2_02_u1_v1.001_baseColor.jpeg"
    },
    {
      "uri": "textures/PE_2241_v2_02_u1_v1.001_metallicRoughness.png"
    },
    {
      "uri": "textures/PE_2241_v2_02_u1_v1.001_normal.png"
    }
  ],
  "materials": [
    {
      "doubleSided": true,
      "name": "PE_2241_v2_02_u1_v1.001",
      "normalTexture": {
        "index": 2
      },
      "pbrMetallicRoughness": {
        "baseColorTexture": {
          "index": 0
        },
        "metallicRoughnessTexture": {
          "index": 1
        }
      }
    }
  ],
  "meshes": [
    {
      "name": "defaultMaterial",
      "primitives": [
        {
          "attributes": {
            "NORMAL": 1,
            "POSITION": 0,
            "TANGENT": 2,
            "TEXCOORD_0": 3
          },
          "indices": 4,
          "material": 0,
          "mode": 4
        }
      ]
    },
    {
      "name": "defaultMaterial",
      "primitives": [
        {
          "attributes": {
            "NORMAL": 6,
            "POSITION": 5,
            "TANGENT": 7,
            "TEXCOORD_0": 8
          },
          "indices": 9,
          "material": 0,
          "mode": 4
        }
      ]
    }
  ],
  "nodes": [
    {
      "children": [
        1
      ],
      "matrix": [
        1.0,
        0.0,
        0.0,
        0.0,
        0.0,
        2.220446049250313e-16,
        -1.0,
        0.0,
        0.0,
        1.0,
        2.220446049250313e-16,
        0.0,
        0.0,
        0.0,
        0.0,
        1.0
      ],
      "name": "Sketchfab_model"
    },
    {
      "children": [
        2
      ],
      "matrix": [
        1.0,
        0.0,
        0.0,
        0.0,
        0.0,
        -4.371139006309477e-08,
        0.999999999999999,
        0.0,
        0.0,
        -0.999999999999999,
        -4.371139006309477e-08,
        0.0,
        0.0,
        0.0,
        0.0,
        1.0
      ],
      "name": "Collada visual scene group"
    },
    {
      "children": [
        3,
        4
      ],
      "matrix": [
        100.0,
        0.0,
        0.0,
        0.0,
        0.0,
        -1.6e-05,
        -100.0,
        0.0,
        0.0,
        100.0,
        -1.6e-05,
        0.0,
        0.0,
        0.0,
        0.0,
        1.0
      ],
      "name": "PE_2241_v2_02"
    },
    {
      "mesh": 0,
      "name": "defaultMaterial"
    },
    {
      "mesh": 1,
      "name": "defaultMaterial"
    }
  ],
  "samplers": [
    {
      "magFilter": 9729,
      "minFilter": 9987,
      "wrapS": 10497,
      "wrapT": 10497
    }
  ],
  "scene": 0,
  "scenes": [
    {
      "name": "Sketchfab_Scene",
      "nodes": [
        0
      ]
    }
  ],
  "textures": [
    {
      "sampler": 0,
      "source": 0
    },
    {
      "sampler": 0,
      "source": 1
    },
    {
      "sampler": 0,
      "source": 2
    }
  ]
}
